<svg version="1.1" xmlns="http://www.w3.org/2000/svg" width="558px" height="65px" transform="rotate(0) scale(1, 1)">
<path d="M0 0 C12.96207647 -0.86167237 12.96207647 -0.86167237 16.8984375 2.40625 C17.62933594 3.93765625 17.62933594 3.93765625 18.375 5.5 C18.89835937 6.5209375 19.42171875 7.541875 19.9609375 8.59375 C20.30382812 9.3878125 20.64671875 10.181875 21 11 C20.01 12.485 20.01 12.485 19 14 C21.31 17.3 23.62 20.6 26 24 C27.32 23.67 28.64 23.34 30 23 C31.27160666 24.58271233 32.54225285 26.16619635 33.8125 27.75 C34.52019531 28.63171875 35.22789062 29.5134375 35.95703125 30.421875 C37.67298861 32.58732788 39.34225138 34.7896685 41 37 C41 29.08 41 21.16 41 13 C40.01 13.66 39.02 14.32 38 15 C38 10.05 38 5.1 38 0 C43.94 0 49.88 0 56 0 C56 21.45 56 42.9 56 65 C43 65 43 65 39.203125 61.484375 C38.17454714 59.93469754 37.19121413 58.35424082 36.25 56.75 C35.17243387 55.09989532 34.09430663 53.45015694 33.015625 51.80078125 C32.50580078 50.98561035 31.99597656 50.17043945 31.47070312 49.33056641 C29.4357014 46.10577781 27.25451056 43.01113008 25 39.9375 C24.34 38.99777344 23.68 38.05804688 23 37.08984375 C20.63026614 34.613657 19.3024579 34.52116083 16 34 C13.97378051 32.193913 12.63519137 30.19582841 11 28 C11 31.96 11 35.92 11 40 C11.99 39.34 12.98 38.68 14 38 C14 46.91 14 55.82 14 65 C9.38 65 4.76 65 0 65 C-0.33 61.7 -0.66 58.4 -1 55 C-1.99 55.66 -2.98 56.32 -4 57 C-4.086985 53.22931168 -4.14038579 49.45888068 -4.1875 45.6875 C-4.21263672 44.61564453 -4.23777344 43.54378906 -4.26367188 42.43945312 C-4.27333984 41.41142578 -4.28300781 40.38339844 -4.29296875 39.32421875 C-4.3086792 38.37635498 -4.32438965 37.42849121 -4.34057617 36.4519043 C-4 34 -4 34 -2.51367188 32.609375 C-0.07885619 30.02061613 -0.55907015 27.39443712 -0.48828125 23.92578125 C-0.46135445 22.90003242 -0.46135445 22.90003242 -0.43388367 21.8535614 C-0.37977925 19.67327 -0.3458866 17.49319744 -0.3125 15.3125 C-0.2793268 13.83265183 -0.24483713 12.35283255 -0.20898438 10.87304688 C-0.12405476 7.24890831 -0.05724365 3.62469348 0 0 Z " fill="#defe47" transform="translate(433,0)"/>
<path d="M0 0 C2.43715776 0.08984687 4.86034314 0.08210374 7.29882812 0.06201172 C20.11961887 0.16222035 20.11961887 0.16222035 24.84570312 4.53466797 C26.36425781 6.33203125 26.36425781 6.33203125 27.17382812 8.21435547 C26.73519597 11.75003373 25.33543867 13.51036187 22.86132812 16.02685547 C22.26707031 16.65205078 21.6728125 17.27724609 21.06054688 17.92138672 C19.17382812 19.21435547 19.17382812 19.21435547 17.13085938 19.16357422 C15.17382812 18.21435547 15.17382812 18.21435547 14.04492188 16.18310547 C11.74082907 13.7587573 10.91045881 13.86782243 7.64648438 13.68310547 C5.84310021 13.67247387 4.03948354 13.68372863 2.23632812 13.71435547 C0.87604492 13.69115234 0.87604492 13.69115234 -0.51171875 13.66748047 C-1.38763672 13.67263672 -2.26355469 13.67779297 -3.16601562 13.68310547 C-3.96386475 13.68761719 -4.76171387 13.69212891 -5.58374023 13.69677734 C-8.79255856 14.43740825 -9.90988418 15.54467612 -11.82617188 18.21435547 C-12.24482746 20.83713159 -12.43086579 23.05939784 -12.43554688 25.68310547 C-12.45208313 26.40042847 -12.46861938 27.11775146 -12.48565674 27.85681152 C-12.53408597 30.14274578 -12.55547015 32.42801885 -12.57617188 34.71435547 C-12.60434372 36.25214945 -12.63427286 37.7899123 -12.66601562 39.32763672 C-12.76870437 44.62338025 -12.82617188 49.91747551 -12.82617188 55.21435547 C-5.26683166 56.14105049 -5.26683166 56.14105049 1.71679688 53.67919922 C5.02410107 50.55262203 7.46979233 47.80466882 8.17382812 43.21435547 C8.17382812 42.22435547 8.17382812 41.23435547 8.17382812 40.21435547 C4.54382813 40.21435547 0.91382813 40.21435547 -2.82617188 40.21435547 C-2.82617188 36.25435547 -2.82617188 32.29435547 -2.82617188 28.21435547 C6.41382813 28.21435547 15.65382813 28.21435547 25.17382812 28.21435547 C25.66882813 29.69935547 25.66882813 29.69935547 26.17382812 31.21435547 C27.49382813 30.22435547 28.81382812 29.23435547 30.17382812 28.21435547 C30.17382812 40.75435547 30.17382812 53.29435547 30.17382812 66.21435547 C10.37382813 66.21435547 -9.42617188 66.21435547 -29.82617188 66.21435547 C-28.17617188 63.90435547 -26.52617187 61.59435547 -24.82617188 59.21435547 C-25.48617188 58.55435547 -26.14617187 57.89435547 -26.82617188 57.21435547 C-27.14070129 55.3394928 -27.14070129 55.3394928 -27.2277832 53.03100586 C-27.26313675 52.16572769 -27.2984903 51.30044952 -27.33491516 50.40895081 C-27.43760294 46.41994841 -27.52759393 42.43164516 -27.58129883 38.44165039 C-27.61926556 36.34734079 -27.68044754 34.2533116 -27.76586914 32.16040039 C-28.55719225 12.61890085 -28.55719225 12.61890085 -22.41601562 5.34326172 C-15.52798686 -0.14460309 -8.46237075 -0.33168919 0 0 Z M14.17382812 45.21435547 C10.87382813 48.51435547 7.57382812 51.81435547 4.17382812 55.21435547 C7.24243443 55.53963155 7.24243443 55.53963155 9.21679688 53.46435547 C10.27833984 52.35060547 10.27833984 52.35060547 11.36132812 51.21435547 C12.07675781 50.47185547 12.7921875 49.72935547 13.52929688 48.96435547 C14.07199219 48.38685547 14.6146875 47.80935547 15.17382812 47.21435547 C14.84382812 46.55435547 14.51382813 45.89435547 14.17382812 45.21435547 Z " fill="#defe47" transform="translate(527.826171875,-1.21435546875)"/>
<path d="M0 0 C6.22529387 -0.24870566 12.44765056 -0.42934131 18.67675781 -0.54931641 C20.79152841 -0.5993606 22.90595725 -0.66742293 25.01953125 -0.75439453 C44.83069822 -1.54871019 44.83069822 -1.54871019 51.37109375 4.37890625 C55.39966668 9.58670872 56.54758584 14.07027693 56.1875 20.5625 C56.16631104 21.48417969 56.14512207 22.40585937 56.12329102 23.35546875 C55.76618933 29.11008297 54.79485335 32.43724759 50.4375 36.5 C49.59058594 37.0878125 48.74367188 37.675625 47.87109375 38.28125 C47.25363281 38.8484375 46.63617188 39.415625 46 40 C46.36378423 43.72408427 47.60360748 46.42507241 49.50390625 49.609375 C49.99697266 50.44597656 50.49003906 51.28257813 50.99804688 52.14453125 C51.51431641 53.00433594 52.03058594 53.86414062 52.5625 54.75 C53.58636348 56.47293259 54.60859332 58.19683741 55.62890625 59.921875 C56.3106189 61.06027832 56.3106189 61.06027832 57.00610352 62.22167969 C58 64 58 64 58 65 C52.97253199 66.02560347 47.87142494 66.97417019 43 65 C38.76014343 60.90373928 36.36449433 55.29388981 33.94335938 49.99853516 C32.94719435 47.80031119 32.94719435 47.80031119 31.234375 45.07421875 C30 43 30 43 30 41 C24.39 41 18.78 41 13 41 C13 48.92 13 56.84 13 65 C8.71 65 4.42 65 0 65 C-0.33 52.46 -0.66 39.92 -1 27 C-2.98 28.65 -4.96 30.3 -7 32 C-7.93451824 18.39756782 -7.93451824 18.39756782 -5.69921875 15.0546875 C-4.64990702 14.21824331 -3.57512571 13.41226473 -2.47216797 12.64794922 C-0.38046985 10.3064961 -0.48772584 8.42098799 -0.30859375 5.328125 C-0.21082642 3.83394043 -0.21082642 3.83394043 -0.11108398 2.30957031 C-0.07442627 1.54741211 -0.03776855 0.78525391 0 0 Z M6 11 C6 13.31 6 15.62 6 18 C7.98 16.35 9.96 14.7 12 13 C12.33 18.61 12.66 24.22 13 30 C16.91739994 30.10781835 20.831841 30.18723773 24.75 30.25 C25.86117187 30.28351562 26.97234375 30.31703125 28.1171875 30.3515625 C29.18710937 30.36445313 30.25703125 30.37734375 31.359375 30.390625 C32.83615723 30.4220459 32.83615723 30.4220459 34.34277344 30.45410156 C37.74979291 29.8718656 38.90354352 28.69474704 41 26 C41.59354241 23.06377314 41.59354241 23.06377314 41.4375 19.9375 C41.43621094 18.89464844 41.43492187 17.85179687 41.43359375 16.77734375 C41.20386148 14.06862843 41.20386148 14.06862843 39.92871094 12.34472656 C37.02451216 10.31987506 34.11570329 10.62992219 30.70703125 10.70703125 C30.00100266 10.71127609 29.29497406 10.71552094 28.56755066 10.71989441 C26.31547697 10.73666966 24.06430258 10.77431757 21.8125 10.8125 C20.28451815 10.82754843 18.75652224 10.84123656 17.22851562 10.85351562 C13.48533128 10.88656911 9.74281804 10.93834168 6 11 Z " fill="#defe47" transform="translate(316,0)"/>
<path d="M0 0 C2.33453599 0.06682692 4.64824439 0.02085061 6.98266602 -0.03686523 C15.06365784 -0.04623581 19.99316563 0.62133743 25.85571289 6.46118164 C27.20389547 8.06386592 28.52524463 9.69183181 29.76586914 11.37915039 C28.39823775 14.2075114 27.07191921 16.41454371 24.89086914 18.69165039 C24.39844727 19.2240332 23.90602539 19.75641602 23.39868164 20.30493164 C21.76586914 21.37915039 21.76586914 21.37915039 19.88305664 21.35961914 C17.76586914 20.37915039 17.76586914 20.37915039 15.65258789 17.84399414 C11.45360341 14.25866368 7.9172153 14.74730267 2.57836914 14.94165039 C1.6637793 14.94745117 0.74918945 14.95325195 -0.19311523 14.95922852 C-5.24071892 14.77902269 -5.24071892 14.77902269 -9.23413086 17.37915039 C-9.56746419 20.87915039 -9.56746419 20.87915039 -9.23413086 24.37915039 C-7.39097466 26.66148727 -7.39097466 26.66148727 -4.57958984 26.55517578 C-3.47429932 26.52931396 -2.36900879 26.50345215 -1.23022461 26.47680664 C-0.01399414 26.47487305 1.20223633 26.47293945 2.45532227 26.47094727 C5.01036668 26.45162015 7.56536828 26.4053243 10.11938477 26.33032227 C16.93737911 26.3697741 21.09316947 26.82855766 26.16821289 31.62524414 C28.53018068 34.20097933 29.66818732 35.56525922 30.08642578 39.05004883 C29.6635819 42.12234938 28.53297614 43.12696365 26.26586914 45.19165039 C25.61618164 45.7962207 24.96649414 46.40079102 24.29711914 47.02368164 C23.79180664 47.47098633 23.28649414 47.91829102 22.76586914 48.37915039 C23.42586914 49.69915039 24.08586914 51.01915039 24.76586914 52.37915039 C26.41586914 51.71915039 28.06586914 51.05915039 29.76586914 50.37915039 C30.35300095 54.48907309 30.66690248 57.00498338 28.3482666 60.5411377 C24.7150653 64.42680056 22.06633635 66.85258542 16.63500977 67.28735352 C14.73024316 67.28610296 12.82514457 67.24183491 10.92211914 67.16040039 C9.91242065 67.14908081 8.90272217 67.13776123 7.86242676 67.12609863 C4.66158097 67.08158561 1.46534271 66.9812715 -1.73413086 66.87915039 C-3.91375331 66.83899093 -6.09344652 66.8024945 -8.27319336 66.76977539 C-13.59505756 66.68193539 -18.91426506 66.54835781 -24.23413086 66.37915039 C-24.01885742 65.77586914 -23.80358398 65.17258789 -23.58178711 64.55102539 C-23.46706055 63.83430664 -23.35233398 63.11758789 -23.23413086 62.37915039 C-25.58839585 59.60792764 -25.58839585 59.60792764 -28.23413086 57.37915039 C-26.82568368 54.16390734 -25.130683 52.05731171 -22.60913086 49.62915039 C-21.66166992 48.70875977 -21.66166992 48.70875977 -20.69506836 47.76977539 C-19.9719043 47.08141602 -19.9719043 47.08141602 -19.23413086 46.37915039 C-18.08786764 47.35781377 -16.94213298 48.33709627 -15.79663086 49.31665039 C-14.83950195 50.13456055 -14.83950195 50.13456055 -13.86303711 50.96899414 C-12.96421937 51.74710734 -12.07476558 52.53851567 -11.23413086 53.37915039 C-7.04595018 54.24760257 -3.41127975 54.32894295 0.76586914 53.37915039 C5.12786178 50.50225685 8.4677158 46.37848594 11.76586914 42.37915039 C11.10586914 41.38915039 10.44586914 40.39915039 9.76586914 39.37915039 C7.09888158 39.01671176 7.09888158 39.01671176 3.98071289 39.18383789 C2.22404297 39.19157227 2.22404297 39.19157227 0.43188477 39.19946289 C-2.02691365 39.23552698 -4.48549588 39.2949042 -6.94311523 39.37915039 C-13.50086494 39.36482434 -17.5915237 38.89333545 -22.52709961 34.34790039 C-26.22969268 29.99822304 -27.69742819 26.67785932 -27.48413086 21.00415039 C-27.53569336 20.32610352 -27.58725586 19.64805664 -27.64038086 18.94946289 C-27.59644469 13.06201658 -24.35731545 9.02878816 -20.30451965 4.97129822 C-14.28020279 -0.2337261 -7.65289987 -0.25108681 0 0 Z M14.76586914 45.37915039 C12.12586914 48.01915039 9.48586914 50.65915039 6.76586914 53.37915039 C8.08586914 53.70915039 9.40586914 54.03915039 10.76586914 54.37915039 C13.68253581 52.29581706 13.68253581 52.29581706 15.76586914 49.37915039 C15.43586914 48.05915039 15.10586914 46.73915039 14.76586914 45.37915039 Z " fill="#defe47" transform="translate(208.234130859375,-1.379150390625)"/>
<path d="M0 0 C1.02566574 0.02211548 1.02566574 0.02211548 2.072052 0.04467773 C9.21952046 0.20685522 15.91620496 0.48221422 21.46044922 5.46289062 C23.39335742 7.66036084 24.97175315 9.93501466 26.375 12.5 C25.3955742 14.68487295 24.65548212 16.260008 22.8190918 17.83129883 C20.86874204 20.08499969 21.02844048 21.43922645 21.08203125 24.38671875 C21.09169922 25.32451172 21.10136719 26.26230469 21.11132812 27.22851562 C21.13646484 28.20498047 21.16160156 29.18144531 21.1875 30.1875 C21.20103516 31.17556641 21.21457031 32.16363281 21.22851562 33.18164062 C21.26387339 35.62132617 21.31768038 38.06073163 21.375 40.5 C23.685 38.52 25.995 36.54 28.375 34.5 C28.70498957 37.59212447 28.93837397 40.64845318 29.125 43.75 C29.27582031 45.03003906 29.27582031 45.03003906 29.4296875 46.3359375 C29.70151748 52.40680707 27.70155612 56.61585115 23.71875 61.125 C18.37077176 66.49338083 13.22417016 67.55301903 5.796875 67.671875 C1.89823797 67.63700109 -1.9820695 67.45330956 -5.875 67.25 C-7.89176713 67.18970122 -9.90870869 67.13496697 -11.92578125 67.0859375 C-16.82988632 66.95474016 -21.72548789 66.74835063 -26.625 66.5 C-25.635 65.18 -24.645 63.86 -23.625 62.5 C-24.60172214 60.3211583 -25.38005777 58.72157117 -27.16503906 57.10690308 C-29.74539446 54.26684009 -29.26454814 50.36524261 -29.375 46.6953125 C-29.40158691 45.82035126 -29.42817383 44.94539001 -29.45556641 44.04391479 C-29.50146042 42.18638352 -29.5378245 40.32859619 -29.56542969 38.47070312 C-29.60478584 36.59064032 -29.67263758 34.71093392 -29.77050781 32.83300781 C-30.23452302 23.9030825 -30.60364154 15.71230743 -24.6968689 8.48129272 C-17.51555658 1.08317809 -10.22399509 -0.55247301 0 0 Z M-14.59448242 17.21069336 C-17.07306164 22.71688558 -16.25571286 29.20339603 -16.0625 35.125 C-16.04095138 36.55725401 -16.02204661 37.98955037 -16.00585938 39.421875 C-16.03842959 46.17409265 -16.03842959 46.17409265 -15.04321289 52.81005859 C-14.625 54.5 -14.625 54.5 -15.625 56.5 C-12.74770306 56.66286586 -9.87969706 56.78124242 -7 56.875 C-6.19175781 56.92527344 -5.38351563 56.97554687 -4.55078125 57.02734375 C-0.32297127 57.13046107 2.61558417 56.89318405 5.92578125 54.10546875 C9.41961628 50.00063689 9.08465843 45.59559175 8.9375 40.4375 C8.71709658 31.26738186 8.71709658 31.26738186 11.86328125 27.59765625 C12.69214844 26.90542969 13.52101563 26.21320312 14.375 25.5 C15.20833333 22 15.20833333 22 14.375 18.5 C12.34081759 15.70758527 10.73217066 13.82110215 7.28027344 13.00439453 C4.81376993 12.7896697 2.41259552 12.76867614 -0.0625 12.8125 C-0.89587891 12.78478516 -1.72925781 12.75707031 -2.58789062 12.72851562 C-7.50504504 12.74795102 -11.30076167 13.33995365 -14.59448242 17.21069336 Z " fill="#defe47" transform="translate(28.625,-1.5)"/>
<path d="M0 0 C6.91903421 -0.27354766 13.83487221 -0.4722636 20.75805664 -0.60424805 C23.10854968 -0.65930115 25.45867055 -0.73417301 27.80786133 -0.82983398 C49.45666764 -1.68880423 49.45666764 -1.68880423 55.64128113 3.66984558 C59.75813934 7.97762641 61.52223762 11.48157413 61.9375 17.4375 C61.67700654 22.20897779 60.38798647 23.77853082 57 27 C56.29805062 28.65211661 55.63279169 30.3201795 55 32 C52.53802331 36.38040008 49.70057337 40.01497874 45 42 C36.75855136 43.27544587 28.28284113 42.61529677 20 42 C20.00785522 42.99181274 20.00785522 42.99181274 20.01586914 44.00366211 C20.03657656 46.98159851 20.04964012 49.95951982 20.0625 52.9375 C20.07087891 53.97841797 20.07925781 55.01933594 20.08789062 56.09179688 C20.09272461 57.57583008 20.09272461 57.57583008 20.09765625 59.08984375 C20.10551147 60.46450806 20.10551147 60.46450806 20.11352539 61.86694336 C20 64 20 64 19 65 C14.71 65 10.42 65 6 65 C5.505 36.29 5.505 36.29 5 7 C3.35 8.32 1.7 9.64 0 11 C0 7.37 0 3.74 0 0 Z M20 12 C20 17.94 20 23.88 20 30 C24.10455765 30.08071599 28.20753836 30.14036813 32.3125 30.1875 C34.06336914 30.22520508 34.06336914 30.22520508 35.84960938 30.26367188 C36.96787109 30.27333984 38.08613281 30.28300781 39.23828125 30.29296875 C40.26993408 30.3086792 41.30158691 30.32438965 42.36450195 30.34057617 C45.01838499 30.21293 45.01838499 30.21293 46.83520508 28.6574707 C48.59976014 26.14655804 48.39726168 24.02758871 48.375 21 C48.38273437 19.948125 48.39046875 18.89625 48.3984375 17.8125 C48.22485107 15.05304827 48.22485107 15.05304827 46.83520508 13.3425293 C44.25033232 11.45158673 42.41685007 11.65862665 39.23828125 11.70703125 C38.12001953 11.71669922 37.00175781 11.72636719 35.84960938 11.73632812 C34.09874023 11.7740332 34.09874023 11.7740332 32.3125 11.8125 C31.13365234 11.82603516 29.95480469 11.83957031 28.74023438 11.85351562 C25.82662867 11.88890355 22.91325736 11.94271089 20 12 Z " fill="#defe47" transform="translate(243,0)"/>
<path d="M0 0 C14.52 0 29.04 0 44 0 C44 4.29 44 8.58 44 13 C34.1 13 24.2 13 14 13 C14 16.3 14 19.6 14 23 C13.01 23.99 12.02 24.98 11 26 C29.315 26.495 29.315 26.495 48 27 C48 30.96 48 34.92 48 39 C34.8 39.33 21.6 39.66 8 40 C8 48.25 8 56.5 8 65 C3.05 65 -1.9 65 -7 65 C-7.1622799 61.1233134 -7.28105855 57.25343972 -7.375 53.375 C-7.42527344 52.28058594 -7.47554688 51.18617187 -7.52734375 50.05859375 C-7.54667969 48.99511719 -7.56601563 47.93164062 -7.5859375 46.8359375 C-7.63306885 45.37486572 -7.63306885 45.37486572 -7.68115234 43.88427734 C-6.92745167 40.69280071 -6.37537481 40.22748428 -4.01367188 38.15039062 C-1.25000645 35.61393337 -1.01455174 35.07331027 -0.22705078 31.10595703 C-0.18709218 29.65708782 -0.17711364 28.20711836 -0.1953125 26.7578125 C-0.17488892 25.73482056 -0.17488892 25.73482056 -0.15405273 24.69116211 C-0.11225307 22.16943589 -0.12156113 19.64707028 -0.125 17.125 C-0.08375 11.47375 -0.0425 5.8225 0 0 Z " fill="#defe47" transform="translate(128,0)"/>
<path d="M0 0 C14.52 0 29.04 0 44 0 C44 4.29 44 8.58 44 13 C34.1 13 24.2 13 14 13 C14 16.3 14 19.6 14 23 C12.68 23.99 11.36 24.98 10 26 C28.315 26.495 28.315 26.495 47 27 C47 30.96 47 34.92 47 39 C34.13 39.33 21.26 39.66 8 40 C8 48.25 8 56.5 8 65 C3.05 65 -1.9 65 -7 65 C-7.1622799 61.1233134 -7.28105855 57.25343972 -7.375 53.375 C-7.42527344 52.28058594 -7.47554687 51.18617187 -7.52734375 50.05859375 C-7.54667969 48.99511719 -7.56601562 47.93164062 -7.5859375 46.8359375 C-7.63306885 45.37486572 -7.63306885 45.37486572 -7.68115234 43.88427734 C-6.92745167 40.69280071 -6.37537481 40.22748428 -4.01367188 38.15039062 C-1.25000645 35.61393337 -1.01455174 35.07331027 -0.22705078 31.10595703 C-0.18709218 29.65708782 -0.17711364 28.20711836 -0.1953125 26.7578125 C-0.17488892 25.73482056 -0.17488892 25.73482056 -0.15405273 24.69116211 C-0.11225307 22.16943589 -0.12156113 19.64707028 -0.125 17.125 C-0.08375 11.47375 -0.0425 5.8225 0 0 Z " fill="#defe47" transform="translate(70,0)"/>
<path d="M0 0 C10.23 0 20.46 0 31 0 C31 4.29 31 8.58 31 13 C29.02 13 27.04 13 25 13 C25.10441406 14.73636719 25.10441406 14.73636719 25.2109375 16.5078125 C25.26724253 18.04681667 25.32183974 19.58588399 25.375 21.125 C25.42527344 21.88554687 25.47554688 22.64609375 25.52734375 23.4296875 C25.67648553 29.19650289 25.67648553 29.19650289 23.66845703 31.58154297 C22.57438012 32.52943841 21.47833757 33.47506969 20.38037109 34.41845703 C17.76219488 37.41819978 18.11394719 41.06620208 18.125 44.875 C18.08375 47.55625 18.0425 50.2375 18 53 C24.27 53 30.54 53 37 53 C34.525 55.97 34.525 55.97 32 59 C31.67 60.98 31.34 62.96 31 65 C19.12 65 7.24 65 -5 65 C-5 59 -5 59 -3.828125 57.1015625 C-3.30734375 56.61429688 -2.7865625 56.12703125 -2.25 55.625 C-1.73953125 55.12226562 -1.2290625 54.61953125 -0.703125 54.1015625 C1 53 1 53 5 53 C4.8453125 51.6696875 4.8453125 51.6696875 4.6875 50.3125 C5 47 5 47 7.4753418 44.7199707 C10.61664089 41.33565456 10.64688512 39.7190262 10.70703125 35.16796875 C10.75053711 33.22954102 10.75053711 33.22954102 10.79492188 31.25195312 C10.8013102 29.89713781 10.80716288 28.54231987 10.8125 27.1875 C10.83565748 25.8131116 10.86102545 24.43875856 10.88867188 23.06445312 C10.94752287 19.70994638 10.97662802 16.35494154 11 13 C5.06 13 -0.88 13 -7 13 C-5 9 -5 9 -2.9375 7.0625 C-0.51063291 4.84307406 -0.51063291 4.84307406 0 0 Z " fill="#defe47" transform="translate(386,0)"/>
</svg>